<mxfile host="app.diagrams.net" agent="Mozilla/5.0 (Windows NT 10.0; Win64; x64) AppleWebKit/537.36 (KHTML, like Gecko) Chrome/133.0.0.0 Safari/537.36" version="26.0.14">
  <diagram name="Page-1" id="hKWgertqjbPcRspeeDhW">
    <mxGraphModel dx="1615" dy="1957" grid="1" gridSize="10" guides="1" tooltips="1" connect="1" arrows="1" fold="1" page="1" pageScale="1" pageWidth="850" pageHeight="1100" math="0" shadow="0">
      <root>
        <mxCell id="0" />
        <mxCell id="1" parent="0" />
        <mxCell id="hEnu3Iy0dktQwu9KArQD-1" value="DFD 3 Level" style="text;html=1;align=center;verticalAlign=middle;whiteSpace=wrap;rounded=0;" vertex="1" parent="1">
          <mxGeometry x="310" y="-110" width="220" height="90" as="geometry" />
        </mxCell>
        <mxCell id="hEnu3Iy0dktQwu9KArQD-30" value="Manage Roles of user&amp;nbsp;" style="rounded=0;whiteSpace=wrap;html=1;" vertex="1" parent="1">
          <mxGeometry x="240" y="430" width="160" height="80" as="geometry" />
        </mxCell>
        <mxCell id="hEnu3Iy0dktQwu9KArQD-31" value="Manage Payment Details" style="rounded=0;whiteSpace=wrap;html=1;" vertex="1" parent="1">
          <mxGeometry x="660" y="130" width="160" height="80" as="geometry" />
        </mxCell>
        <mxCell id="hEnu3Iy0dktQwu9KArQD-32" value="Manage Sales Details" style="rounded=0;whiteSpace=wrap;html=1;" vertex="1" parent="1">
          <mxGeometry x="660" y="330" width="160" height="80" as="geometry" />
        </mxCell>
        <mxCell id="hEnu3Iy0dktQwu9KArQD-33" value="Manage Products Details" style="rounded=0;whiteSpace=wrap;html=1;" vertex="1" parent="1">
          <mxGeometry x="660" y="230" width="160" height="80" as="geometry" />
        </mxCell>
        <mxCell id="hEnu3Iy0dktQwu9KArQD-34" value="Managment User Permission" style="rounded=0;whiteSpace=wrap;html=1;" vertex="1" parent="1">
          <mxGeometry x="440" y="430" width="170" height="80" as="geometry" />
        </mxCell>
        <mxCell id="hEnu3Iy0dktQwu9KArQD-35" value="Manage Customer Details" style="rounded=0;whiteSpace=wrap;html=1;" vertex="1" parent="1">
          <mxGeometry x="660" y="35" width="160" height="80" as="geometry" />
        </mxCell>
        <mxCell id="hEnu3Iy0dktQwu9KArQD-42" value="Harshit Lakhera&lt;div&gt;02214202023&lt;/div&gt;" style="text;html=1;align=center;verticalAlign=middle;whiteSpace=wrap;rounded=0;" vertex="1" parent="1">
          <mxGeometry x="80" y="-80" width="130" height="60" as="geometry" />
        </mxCell>
        <mxCell id="hEnu3Iy0dktQwu9KArQD-60" value="Admin" style="rounded=0;whiteSpace=wrap;html=1;" vertex="1" parent="1">
          <mxGeometry x="50" y="35" width="150" height="80" as="geometry" />
        </mxCell>
        <mxCell id="hEnu3Iy0dktQwu9KArQD-62" value="Forgot Password" style="ellipse;whiteSpace=wrap;html=1;aspect=fixed;" vertex="1" parent="1">
          <mxGeometry x="60" y="170" width="130" height="130" as="geometry" />
        </mxCell>
        <mxCell id="hEnu3Iy0dktQwu9KArQD-64" value="Send Mail to User" style="ellipse;whiteSpace=wrap;html=1;aspect=fixed;" vertex="1" parent="1">
          <mxGeometry x="60" y="340" width="130" height="130" as="geometry" />
        </mxCell>
        <mxCell id="hEnu3Iy0dktQwu9KArQD-65" value="Login to System" style="ellipse;whiteSpace=wrap;html=1;aspect=fixed;" vertex="1" parent="1">
          <mxGeometry x="260" y="20" width="130" height="130" as="geometry" />
        </mxCell>
        <mxCell id="hEnu3Iy0dktQwu9KArQD-66" value="Check Credentials" style="ellipse;whiteSpace=wrap;html=1;aspect=fixed;" vertex="1" parent="1">
          <mxGeometry x="260" y="190" width="130" height="130" as="geometry" />
        </mxCell>
        <mxCell id="hEnu3Iy0dktQwu9KArQD-67" value="Check Roles of Access" style="ellipse;whiteSpace=wrap;html=1;aspect=fixed;" vertex="1" parent="1">
          <mxGeometry x="440" y="20" width="130" height="130" as="geometry" />
        </mxCell>
        <mxCell id="hEnu3Iy0dktQwu9KArQD-68" value="Manage Modules" style="ellipse;whiteSpace=wrap;html=1;aspect=fixed;" vertex="1" parent="1">
          <mxGeometry x="440" y="190" width="130" height="130" as="geometry" />
        </mxCell>
        <mxCell id="hEnu3Iy0dktQwu9KArQD-69" value="" style="endArrow=classic;html=1;rounded=0;entryX=0.5;entryY=0;entryDx=0;entryDy=0;exitX=0.5;exitY=1;exitDx=0;exitDy=0;" edge="1" parent="1" source="hEnu3Iy0dktQwu9KArQD-60" target="hEnu3Iy0dktQwu9KArQD-62">
          <mxGeometry width="50" height="50" relative="1" as="geometry">
            <mxPoint x="130" y="115" as="sourcePoint" />
            <mxPoint x="180" y="65" as="targetPoint" />
          </mxGeometry>
        </mxCell>
        <mxCell id="hEnu3Iy0dktQwu9KArQD-70" value="" style="endArrow=classic;html=1;rounded=0;exitX=0.5;exitY=1;exitDx=0;exitDy=0;entryX=0.5;entryY=0;entryDx=0;entryDy=0;" edge="1" parent="1" target="hEnu3Iy0dktQwu9KArQD-64">
          <mxGeometry width="50" height="50" relative="1" as="geometry">
            <mxPoint x="124.23" y="300" as="sourcePoint" />
            <mxPoint x="120" y="330" as="targetPoint" />
          </mxGeometry>
        </mxCell>
        <mxCell id="hEnu3Iy0dktQwu9KArQD-72" value="" style="endArrow=classic;html=1;rounded=0;entryX=0;entryY=0.5;entryDx=0;entryDy=0;" edge="1" parent="1" target="hEnu3Iy0dktQwu9KArQD-65">
          <mxGeometry width="50" height="50" relative="1" as="geometry">
            <mxPoint x="200" y="85" as="sourcePoint" />
            <mxPoint x="250" y="35" as="targetPoint" />
          </mxGeometry>
        </mxCell>
        <mxCell id="hEnu3Iy0dktQwu9KArQD-73" value="" style="endArrow=classic;html=1;rounded=0;exitX=0.982;exitY=0.354;exitDx=0;exitDy=0;exitPerimeter=0;" edge="1" parent="1" source="hEnu3Iy0dktQwu9KArQD-66" target="hEnu3Iy0dktQwu9KArQD-67">
          <mxGeometry width="50" height="50" relative="1" as="geometry">
            <mxPoint x="390" y="85" as="sourcePoint" />
            <mxPoint x="390" y="140" as="targetPoint" />
          </mxGeometry>
        </mxCell>
        <mxCell id="hEnu3Iy0dktQwu9KArQD-74" value="" style="endArrow=classic;html=1;rounded=0;exitX=0.5;exitY=1;exitDx=0;exitDy=0;entryX=0.5;entryY=0;entryDx=0;entryDy=0;" edge="1" parent="1" target="hEnu3Iy0dktQwu9KArQD-66">
          <mxGeometry width="50" height="50" relative="1" as="geometry">
            <mxPoint x="324.23" y="145" as="sourcePoint" />
            <mxPoint x="324" y="180" as="targetPoint" />
          </mxGeometry>
        </mxCell>
        <mxCell id="hEnu3Iy0dktQwu9KArQD-76" value="" style="endArrow=classic;html=1;rounded=0;exitX=0.5;exitY=1;exitDx=0;exitDy=0;" edge="1" parent="1">
          <mxGeometry width="50" height="50" relative="1" as="geometry">
            <mxPoint x="504.23" y="150" as="sourcePoint" />
            <mxPoint x="504" y="190" as="targetPoint" />
          </mxGeometry>
        </mxCell>
        <mxCell id="hEnu3Iy0dktQwu9KArQD-77" value="Manage Reports" style="rounded=0;whiteSpace=wrap;html=1;" vertex="1" parent="1">
          <mxGeometry x="660" y="430" width="160" height="80" as="geometry" />
        </mxCell>
        <mxCell id="hEnu3Iy0dktQwu9KArQD-78" value="" style="endArrow=classic;html=1;rounded=0;entryX=0;entryY=0.5;entryDx=0;entryDy=0;" edge="1" parent="1" target="hEnu3Iy0dktQwu9KArQD-35">
          <mxGeometry width="50" height="50" relative="1" as="geometry">
            <mxPoint x="550" y="210" as="sourcePoint" />
            <mxPoint x="600" y="160" as="targetPoint" />
          </mxGeometry>
        </mxCell>
        <mxCell id="hEnu3Iy0dktQwu9KArQD-79" value="" style="endArrow=classic;html=1;rounded=0;entryX=0;entryY=0.5;entryDx=0;entryDy=0;" edge="1" parent="1" target="hEnu3Iy0dktQwu9KArQD-31">
          <mxGeometry width="50" height="50" relative="1" as="geometry">
            <mxPoint x="560" y="230" as="sourcePoint" />
            <mxPoint x="610" y="180" as="targetPoint" />
          </mxGeometry>
        </mxCell>
        <mxCell id="hEnu3Iy0dktQwu9KArQD-80" value="" style="endArrow=classic;html=1;rounded=0;entryX=0;entryY=0.5;entryDx=0;entryDy=0;exitX=1;exitY=0.615;exitDx=0;exitDy=0;exitPerimeter=0;" edge="1" parent="1" source="hEnu3Iy0dktQwu9KArQD-68" target="hEnu3Iy0dktQwu9KArQD-33">
          <mxGeometry width="50" height="50" relative="1" as="geometry">
            <mxPoint x="570" y="280" as="sourcePoint" />
            <mxPoint x="620" y="230" as="targetPoint" />
          </mxGeometry>
        </mxCell>
        <mxCell id="hEnu3Iy0dktQwu9KArQD-81" value="" style="endArrow=classic;html=1;rounded=0;entryX=0;entryY=0.25;entryDx=0;entryDy=0;" edge="1" parent="1" target="hEnu3Iy0dktQwu9KArQD-32">
          <mxGeometry width="50" height="50" relative="1" as="geometry">
            <mxPoint x="550" y="300" as="sourcePoint" />
            <mxPoint x="600" y="250" as="targetPoint" />
          </mxGeometry>
        </mxCell>
        <mxCell id="hEnu3Iy0dktQwu9KArQD-82" value="" style="endArrow=classic;html=1;rounded=0;entryX=0;entryY=0.25;entryDx=0;entryDy=0;" edge="1" parent="1" target="hEnu3Iy0dktQwu9KArQD-77">
          <mxGeometry width="50" height="50" relative="1" as="geometry">
            <mxPoint x="530" y="320" as="sourcePoint" />
            <mxPoint x="580" y="270" as="targetPoint" />
          </mxGeometry>
        </mxCell>
        <mxCell id="hEnu3Iy0dktQwu9KArQD-83" value="" style="endArrow=classic;html=1;rounded=0;entryX=0.422;entryY=-0.014;entryDx=0;entryDy=0;entryPerimeter=0;" edge="1" parent="1" target="hEnu3Iy0dktQwu9KArQD-34">
          <mxGeometry width="50" height="50" relative="1" as="geometry">
            <mxPoint x="500" y="320" as="sourcePoint" />
            <mxPoint x="550" y="270" as="targetPoint" />
          </mxGeometry>
        </mxCell>
        <mxCell id="hEnu3Iy0dktQwu9KArQD-84" value="" style="endArrow=classic;html=1;rounded=0;entryX=0.75;entryY=0;entryDx=0;entryDy=0;" edge="1" parent="1" target="hEnu3Iy0dktQwu9KArQD-30">
          <mxGeometry width="50" height="50" relative="1" as="geometry">
            <mxPoint x="470" y="310" as="sourcePoint" />
            <mxPoint x="520" y="260" as="targetPoint" />
          </mxGeometry>
        </mxCell>
      </root>
    </mxGraphModel>
  </diagram>
</mxfile>
